<?xml version="1.0" standalone="no"?>
<!DOCTYPE svg PUBLIC "-//W3C//DTD SVG 20010904//EN"
 "http://www.w3.org/TR/2001/REC-SVG-20010904/DTD/svg10.dtd">
<svg version="1.0" xmlns="http://www.w3.org/2000/svg"
 width="1280.000000pt" height="891.000000pt" viewBox="0 0 1280.000000 891.000000"
 preserveAspectRatio="xMidYMid meet">
<metadata>
Created by potrace 1.15, written by Peter Selinger 2001-2017
</metadata>
<g transform="translate(0.000000,891.000000) scale(0.100000,-0.100000)"
fill="#000000" stroke="none">
<path d="M5494 8901 c-126 -15 -177 -30 -279 -81 -64 -32 -122 -53 -160 -59
-86 -13 -172 -50 -352 -153 -288 -164 -487 -257 -1076 -502 -658 -275 -707
-298 -929 -432 -259 -157 -437 -293 -638 -489 -168 -163 -229 -215 -450 -380
-370 -276 -560 -456 -699 -663 -23 -34 -86 -158 -140 -275 -54 -117 -157 -333
-228 -482 -284 -590 -373 -810 -453 -1119 -105 -411 -118 -924 -31 -1290 130
-546 457 -868 986 -970 44 -8 152 -22 240 -31 171 -17 294 -38 323 -54 37 -21
-85 -51 -350 -86 -137 -18 -267 -50 -287 -69 -43 -44 159 -233 346 -323 111
-54 162 -64 343 -69 148 -5 216 0 660 45 272 27 498 47 501 43 4 -4 14 -58 24
-121 36 -243 63 -298 227 -481 86 -96 277 -269 359 -327 91 -63 165 -95 328
-142 191 -56 276 -98 360 -182 36 -36 86 -78 110 -93 142 -90 392 -133 620
-107 214 25 349 75 561 208 224 140 386 229 468 257 23 8 103 85 255 243 302
314 569 559 707 649 88 56 253 138 319 158 74 22 185 20 338 -5 219 -36 394
-16 688 78 222 71 477 176 640 263 341 183 398 202 600 202 155 1 244 -10 512
-63 313 -60 378 -69 523 -69 146 0 261 16 490 70 123 28 206 44 375 70 135 22
411 11 540 -20 72 -17 200 -12 268 11 167 56 323 209 413 405 96 207 197 598
239 927 20 159 19 245 -6 363 -17 79 -21 140 -23 304 l-2 205 -41 120 c-22 66
-78 206 -123 310 -321 746 -516 1048 -691 1071 -60 8 -77 27 -89 95 -17 103
-66 210 -163 354 -44 64 -115 144 -252 280 -206 203 -234 236 -340 389 -88
126 -187 226 -304 304 -84 57 -192 102 -242 102 -18 0 -79 90 -79 118 0 7 -16
47 -35 89 -61 132 -225 270 -380 321 -33 11 -103 25 -155 30 -218 23 -425 131
-740 386 -173 140 -282 199 -402 218 -89 13 -155 5 -298 -39 -122 -36 -208
-30 -403 31 -269 85 -388 102 -747 111 -396 9 -761 38 -885 71 -72 18 -102 38
-125 83 -24 47 -93 111 -150 139 -25 12 -81 28 -125 37 -93 19 -386 28 -491
16z m484 -70 c174 -44 252 -115 252 -231 0 -73 -64 -259 -186 -542 -133 -308
-169 -396 -214 -523 -115 -327 -136 -463 -150 -940 -12 -418 -23 -524 -79
-735 -21 -79 -27 -98 -140 -470 -103 -340 -130 -482 -146 -771 -17 -314 -36
-360 -142 -345 -108 15 -136 52 -173 234 -35 173 -50 229 -100 383 -52 161
-68 267 -53 354 20 119 70 188 186 257 37 22 67 44 67 49 0 5 -16 9 -35 9
-105 0 -234 -143 -290 -323 -45 -140 -36 -193 75 -442 38 -86 79 -187 90 -223
21 -67 27 -163 14 -218 -29 -119 -159 -285 -475 -604 -242 -244 -333 -309
-433 -310 -69 0 -124 19 -161 56 -68 68 -150 420 -206 879 -10 84 -12 291 -5
532 0 28 -2 55 -7 59 -4 4 -29 -3 -57 -16 -41 -19 -54 -21 -75 -12 -32 15 -32
13 -1 -108 13 -52 31 -156 41 -230 21 -173 55 -378 100 -605 50 -251 53 -301
26 -359 -24 -49 -100 -123 -137 -132 -15 -4 -52 10 -116 45 -152 82 -322 120
-578 128 -159 5 -220 -1 -260 -27 -36 -23 12 -32 216 -41 248 -10 293 -15 399
-40 196 -47 329 -148 411 -314 40 -79 46 -99 40 -130 -8 -41 -82 -128 -248
-292 l-103 -103 -260 -5 c-143 -3 -640 -10 -1105 -16 l-845 -10 -87 91 c-72
74 -96 107 -132 183 -24 50 -52 124 -62 162 -38 149 -16 385 35 385 10 0 39
-27 65 -60 42 -53 76 -76 76 -51 0 17 -29 91 -69 172 -56 116 -72 183 -78 334
-15 371 127 726 330 825 136 66 299 80 352 30 14 -13 25 -34 25 -47 0 -90 396
-903 440 -903 16 0 -35 127 -146 368 -195 419 -238 560 -238 772 -1 133 0 136
37 229 38 96 41 121 12 121 -53 0 -93 -111 -104 -292 -9 -151 -11 -153 -143
-162 -192 -14 -285 -52 -393 -161 -120 -122 -188 -278 -246 -563 -17 -86 -38
-170 -46 -185 -17 -33 -67 -57 -120 -57 -52 0 -132 -39 -171 -84 -34 -39 -38
-51 -21 -61 22 -14 60 6 75 40 11 26 23 36 51 44 85 24 192 7 220 -35 14 -22
15 -47 10 -192 -8 -179 -28 -365 -48 -432 -20 -67 -76 -120 -187 -178 -55 -29
-104 -52 -109 -52 -11 0 -88 105 -126 171 -14 26 -47 98 -73 160 -59 146 -73
171 -85 163 -30 -18 34 -181 143 -368 100 -171 145 -273 153 -346 9 -80 30
-131 73 -172 77 -76 182 -111 472 -157 102 -17 210 -38 240 -47 91 -27 122
-71 217 -311 4 -10 -20 -13 -100 -13 -599 0 -959 224 -1157 719 -50 127 -94
294 -116 441 -22 143 -25 576 -6 720 26 198 55 349 88 459 93 305 369 927 520
1172 72 116 115 210 154 339 89 287 223 442 705 810 278 212 366 288 550 474
182 185 221 213 581 427 357 212 477 270 1054 509 458 190 698 302 943 438 59
33 147 73 195 88 76 25 102 29 207 28 105 0 127 -3 175 -24 119 -52 172 -122
172 -228 -1 -95 -36 -169 -134 -284 -84 -98 -155 -133 -315 -157 -39 -6 -249
-25 -465 -41 -707 -54 -888 -84 -1068 -174 -127 -64 -199 -129 -375 -341 -166
-200 -323 -366 -438 -463 -45 -38 -242 -192 -437 -342 -519 -399 -581 -450
-731 -599 -200 -201 -263 -307 -313 -531 -38 -173 -66 -221 -215 -369 -69 -70
-190 -187 -268 -261 -148 -141 -202 -213 -203 -267 0 -49 19 -34 94 72 80 113
162 189 276 258 151 90 278 241 330 392 12 33 30 101 40 150 44 198 119 333
278 497 107 111 223 206 697 570 623 479 788 629 935 848 225 334 356 393
1060 469 893 98 918 97 928 -49 5 -71 -13 -313 -34 -459 -48 -329 -179 -617
-429 -946 -77 -102 -148 -185 -425 -505 -108 -124 -244 -282 -303 -352 -138
-163 -166 -173 -215 -75 -64 126 -183 980 -185 1322 -1 203 7 256 75 478 49
163 54 233 19 271 -26 28 -69 34 -89 14 -18 -18 -14 -36 13 -60 35 -30 33 -77
-10 -223 -74 -252 -74 -400 0 -1305 19 -234 38 -444 41 -466 l6 -42 -54 -7
c-185 -23 -219 -38 -259 -116 -28 -56 -83 -253 -114 -410 -42 -215 -83 -321
-182 -470 -54 -82 -169 -193 -217 -209 -29 -9 -41 -9 -70 5 -54 26 -232 222
-275 303 -17 32 -2 47 110 108 135 73 213 150 327 323 105 159 247 360 324
459 26 34 45 62 40 62 -14 0 -220 -214 -275 -285 -29 -38 -77 -108 -107 -155
-147 -231 -311 -370 -440 -374 -80 -2 -111 38 -185 242 -23 62 -50 123 -60
134 -17 21 -18 21 -31 3 -19 -26 -18 -46 12 -133 63 -191 187 -371 453 -661
l83 -91 -48 -21 c-27 -11 -71 -30 -99 -41 -172 -68 -310 -216 -380 -408 -25
-67 -28 -92 -33 -232 -2 -87 -6 -158 -8 -158 -3 0 -62 21 -132 46 -201 73
-307 132 -444 247 -35 29 -77 63 -95 75 -32 22 -63 29 -63 14 0 -19 60 -90
132 -157 165 -154 503 -284 878 -339 100 -15 538 -41 546 -34 2 3 -86 14 -196
27 -223 25 -407 60 -475 90 -39 17 -50 29 -71 76 -24 51 -26 66 -22 155 3 93
6 103 51 193 56 112 153 223 255 290 37 25 132 76 212 115 234 114 339 209
425 387 53 108 84 213 131 440 54 261 83 342 144 400 27 26 39 30 103 33 60 3
89 -2 172 -28 218 -70 254 -106 356 -347 74 -174 152 -316 231 -420 78 -104
105 -129 66 -62 -93 161 -146 274 -215 459 -51 137 -89 204 -160 282 -35 37
-63 73 -63 78 0 48 75 146 309 405 548 605 693 793 827 1070 108 223 150 381
179 670 31 303 55 402 123 500 108 154 242 405 242 452 0 20 -30 69 -105 168
-57 77 -107 152 -111 168 -8 37 16 72 59 86 108 36 475 37 615 2z m682 -292
c204 -22 401 -81 700 -211 289 -126 340 -140 340 -93 0 31 -38 51 -175 94
-117 36 -201 81 -211 113 -24 76 145 77 446 5 223 -54 379 -103 386 -122 3 -7
-2 -27 -11 -44 -45 -88 -270 -381 -308 -404 -16 -9 -92 -12 -279 -11 -142 1
-258 -2 -258 -6 0 -11 138 -77 190 -90 37 -10 190 -16 226 -9 114 21 -11 -151
-201 -278 -33 -22 -96 -59 -140 -81 -122 -63 -230 -155 -314 -267 l-72 -96
-37 32 c-193 164 -342 249 -366 210 -8 -12 18 -32 104 -81 169 -97 210 -144
210 -241 0 -64 -22 -125 -98 -273 -57 -113 -133 -206 -166 -206 -10 0 -33 16
-52 37 -24 27 -41 36 -63 35 -42 -1 -88 -28 -106 -62 -16 -30 -21 -110 -7
-110 5 0 22 20 40 45 38 53 61 57 103 16 46 -46 37 -86 -49 -213 -73 -108
-144 -240 -187 -347 -48 -121 -46 -169 9 -255 68 -105 120 -258 147 -429 6
-43 14 -76 16 -73 8 8 -19 242 -39 336 -11 52 -36 138 -55 190 -58 160 -54
172 160 517 69 110 180 294 247 409 154 264 330 529 410 617 88 96 122 111
240 111 111 1 162 -14 293 -82 183 -95 324 -235 402 -397 24 -50 51 -98 61
-105 16 -14 17 -12 10 28 -3 24 -18 71 -31 105 -38 94 -42 92 233 91 613 -4
1002 -97 1209 -288 86 -80 117 -126 183 -277 55 -124 94 -177 106 -144 4 10
-3 52 -16 94 -37 121 -37 129 -4 141 54 21 182 -13 342 -91 164 -80 222 -148
222 -266 0 -53 14 -62 30 -20 20 48 40 67 72 67 60 0 223 -99 493 -300 258
-191 385 -321 458 -469 41 -83 42 -86 42 -190 0 -103 -1 -108 -34 -161 -70
-113 -189 -263 -431 -540 -247 -283 -357 -426 -348 -451 6 -18 81 57 169 171
37 47 113 137 170 201 57 64 161 180 231 258 207 230 308 376 308 442 0 16 11
41 24 56 20 23 32 28 70 27 111 -2 280 -132 344 -264 18 -36 47 -131 67 -215
19 -82 45 -188 58 -235 20 -78 22 -82 25 -45 1 22 -4 121 -11 220 -8 99 -10
191 -7 205 7 25 8 25 54 -23 64 -66 108 -159 161 -341 54 -187 70 -226 192
-470 106 -211 136 -289 153 -403 21 -137 -7 -338 -99 -709 -124 -498 -217
-674 -405 -760 -124 -56 -137 -58 -691 -59 -526 -1 -574 -4 -905 -49 -333 -46
-372 -44 -615 34 -197 63 -270 74 -452 67 -127 -4 -168 -10 -284 -40 -165 -43
-376 -124 -644 -247 -340 -156 -496 -221 -595 -248 -93 -26 -101 -26 -435 -27
-232 0 -359 4 -400 12 -131 27 -338 156 -513 319 -134 125 -180 219 -138 280
24 34 147 129 201 157 81 40 120 47 320 57 105 5 201 12 214 15 22 6 23 7 5
26 -48 53 -224 62 -386 20 -217 -56 -405 -172 -423 -259 -16 -72 -46 -73 -236
-8 -227 79 -285 88 -599 93 -151 3 -272 2 -269 -1 3 -3 77 -13 165 -21 87 -8
206 -22 263 -31 282 -43 634 -168 717 -255 26 -27 26 -27 8 -55 -29 -43 -201
-175 -403 -309 -183 -120 -293 -185 -544 -321 -275 -148 -348 -239 -257 -324
58 -54 233 -123 274 -107 39 15 -23 61 -127 93 -67 21 -107 53 -107 85 0 44
87 109 280 213 223 120 429 244 740 446 128 83 238 149 244 147 18 -7 381
-277 383 -285 1 -4 -55 -38 -126 -75 -171 -91 -261 -164 -481 -390 -485 -499
-555 -563 -701 -637 -284 -145 -683 -101 -957 105 -126 95 -215 232 -256 397
-13 48 -26 91 -29 95 -4 3 -7 -29 -7 -73 -1 -113 -17 -265 -35 -328 -40 -136
-151 -216 -363 -262 -101 -22 -181 -12 -339 41 -256 86 -474 239 -660 462
-108 131 -147 236 -172 465 -19 166 -10 343 18 371 17 17 54 -6 143 -89 81
-76 118 -99 118 -75 0 10 -47 69 -121 153 -68 76 -89 115 -89 164 0 108 166
522 270 674 61 88 183 200 470 432 301 242 630 480 630 454 0 -2 -14 -46 -31
-98 -37 -110 -50 -218 -27 -218 36 0 78 80 78 150 0 56 34 156 77 227 91 149
340 443 474 560 94 81 162 115 219 111 59 -4 78 -32 89 -133 13 -110 44 -200
108 -308 106 -181 117 -220 84 -298 -15 -34 -25 -88 -32 -167 -13 -145 -22
-183 -56 -222 -52 -62 -140 -90 -381 -121 -86 -11 -188 -26 -226 -34 -63 -13
-103 -31 -92 -42 9 -10 -25 -86 -70 -156 -26 -39 -83 -109 -128 -153 -74 -74
-86 -83 -138 -93 -159 -33 -540 -351 -616 -514 -52 -111 -80 -383 -62 -601 10
-133 32 -236 50 -236 6 0 9 121 7 308 -2 339 1 362 59 490 63 138 176 253 387
395 155 104 253 130 335 88 76 -39 117 -101 255 -381 61 -124 123 -235 146
-263 50 -60 57 -97 43 -208 -16 -118 -16 -125 4 -108 25 20 51 79 64 144 6 33
14 68 16 78 8 28 61 48 141 54 41 3 70 9 66 13 -4 4 -48 15 -98 25 -166 32
-202 66 -330 316 -79 154 -132 242 -210 348 -42 57 -31 134 32 218 96 131 164
187 263 222 31 11 113 29 183 40 247 40 357 98 405 211 8 19 17 83 21 142 10
151 11 152 161 146 63 -3 205 -18 315 -33 213 -29 255 -27 255 13 0 29 -44 43
-184 58 -227 24 -380 95 -531 248 -118 120 -178 234 -191 364 -13 120 86 322
225 463 42 42 99 88 128 102 341 173 1538 407 2098 410 128 1 167 -2 197 -15
78 -35 61 -83 -96 -268 -59 -69 -118 -149 -133 -178 -23 -47 -25 -61 -21 -135
7 -105 52 -246 114 -352 83 -142 104 -186 104 -226 0 -32 -6 -43 -42 -72 -110
-89 -394 -246 -529 -291 -113 -38 -198 -49 -287 -36 -124 17 -158 49 -221 205
-99 242 -149 333 -229 417 -53 56 -106 86 -117 68 -8 -14 10 -44 76 -127 103
-130 182 -284 226 -443 31 -115 30 -182 -7 -291 -71 -214 -214 -436 -418 -651
-109 -116 -177 -196 -170 -203 13 -14 105 52 188 135 115 114 206 227 305 375
90 137 125 206 158 315 36 119 82 163 105 103 6 -16 14 -57 18 -93 9 -90 51
-179 113 -238 90 -86 452 -282 613 -332 95 -29 102 -32 178 -90 101 -75 218
-191 226 -223 9 -38 -18 -65 -124 -128 -128 -76 -265 -110 -602 -148 l-155
-17 127 -6 c69 -4 170 -3 223 2 239 23 479 115 576 221 44 47 58 48 188 13 88
-25 107 -26 231 -21 196 8 379 57 573 153 166 82 251 154 302 256 33 66 46
128 27 128 -15 0 -49 -43 -87 -110 -21 -36 -61 -87 -88 -113 -97 -92 -300
-170 -517 -197 -111 -13 -430 -13 -506 1 -89 16 -139 49 -277 182 l-126 122
44 225 c45 230 66 385 55 416 -10 29 -34 -44 -79 -241 -45 -198 -77 -318 -92
-346 -5 -11 -20 -19 -33 -19 -84 0 -431 172 -606 301 -68 50 -100 94 -120 167
-20 75 5 93 215 158 123 38 356 159 565 293 376 240 488 266 572 130 17 -27
35 -49 39 -49 5 0 9 15 9 33 0 99 55 165 250 297 338 230 710 713 875 1135 65
165 120 268 166 310 22 19 78 54 124 77 47 24 85 46 85 50 0 5 -28 8 -63 8
-82 0 -149 -33 -214 -104 -64 -70 -104 -147 -159 -308 -101 -295 -299 -600
-573 -882 -190 -194 -339 -294 -551 -371 -173 -62 -348 -82 -403 -47 -100 67
-187 296 -187 496 0 141 17 194 85 262 69 69 228 173 362 236 106 49 143 73
143 90 0 16 -61 8 -153 -22 -124 -40 -153 -39 -213 5 -64 46 -139 82 -189 90
-80 12 -83 14 -93 47 -20 64 -22 147 -13 504 11 418 3 560 -32 639 -23 48 -85
130 -93 122 -2 -2 5 -29 15 -60 55 -159 89 -497 61 -599 -21 -75 -57 -71 -208
28 -87 57 -198 116 -239 129 -52 15 -17 -20 94 -92 155 -102 232 -175 271
-257 69 -145 89 -267 54 -336 -41 -82 -146 -127 -392 -166 -289 -47 -484 -85
-765 -149 -154 -35 -345 -78 -425 -96 -260 -56 -411 -123 -557 -245 -48 -40
-92 -74 -97 -74 -5 0 -6 64 -3 148 7 191 52 408 154 742 104 341 125 415 149
519 40 179 53 317 69 731 22 580 25 594 238 1105 81 197 293 725 321 799 6 18
15 18 134 12 70 -4 170 -11 222 -17z m2172 -163 c77 -32 154 -86 328 -231 172
-143 237 -189 346 -243 100 -50 208 -84 369 -117 100 -19 144 -34 205 -66 157
-84 310 -246 310 -328 0 -30 -51 -41 -235 -51 -162 -9 -220 -20 -213 -42 8
-24 118 -47 320 -67 302 -30 424 -66 563 -166 87 -62 142 -129 219 -269 36
-66 64 -121 63 -122 -1 -1 -72 11 -157 27 -367 70 -464 80 -412 43 37 -26 125
-51 289 -84 87 -18 186 -41 220 -51 274 -85 494 -275 618 -533 24 -50 67 -167
95 -261 56 -187 96 -278 123 -283 22 -4 23 27 2 93 -8 27 -12 52 -9 57 19 31
145 -34 219 -113 62 -67 75 -92 207 -377 235 -509 356 -799 390 -935 24 -94
22 -198 -4 -223 -15 -15 -18 -14 -43 10 -51 51 -127 232 -209 496 -20 63 -53
143 -73 177 -118 194 -377 445 -531 515 -24 11 -71 24 -104 28 -75 11 -109 40
-139 119 -55 149 -305 390 -686 662 -344 245 -655 411 -876 466 -163 41 -228
75 -332 179 -107 105 -171 145 -303 190 -173 59 -346 85 -717 109 -510 33
-503 30 -1077 391 l-37 24 285 367 c320 412 325 418 410 479 186 133 432 189
576 130z m-4986 -4907 c38 -28 95 -64 127 -80 55 -28 57 -30 45 -53 -14 -26
-68 -71 -179 -149 l-67 -47 -61 109 c-76 134 -85 164 -66 201 18 34 71 70 106
70 16 0 53 -20 95 -51z m-3043 -481 c14 -18 37 -57 52 -87 75 -150 210 -226
475 -267 229 -35 841 -29 1285 13 94 9 240 16 325 17 130 1 160 -2 187 -17 39
-21 50 -55 30 -93 -50 -96 -103 -102 -1036 -110 -695 -6 -1112 2 -1276 26 -99
15 -185 45 -223 80 -44 40 -85 132 -90 201 -5 71 13 111 81 180 97 98 148 113
190 57z m1002 -633 c73 -19 108 -41 198 -121 157 -139 434 -241 721 -264 117
-10 150 -23 160 -65 9 -36 -24 -106 -66 -138 -101 -77 -245 -60 -783 93 -386
110 -468 144 -516 211 -36 51 -89 181 -89 220 0 63 35 77 200 78 75 1 137 -4
175 -14z m1030 5 c77 -6 148 -13 159 -16 27 -9 17 -76 -26 -166 -36 -76 -77
-124 -116 -139 -40 -15 -135 -10 -291 17 -251 42 -396 101 -496 201 -75 75
-73 88 13 103 69 11 595 11 757 0z m-975 -534 c53 -8 183 -37 290 -65 231 -59
376 -87 523 -100 109 -10 151 -25 164 -58 8 -21 -36 -59 -85 -73 -147 -42
-935 -108 -1162 -97 -212 11 -318 49 -434 158 -81 75 -113 123 -96 144 15 18
108 38 320 69 272 39 342 42 480 22z m3040 -1389 c36 -19 101 -48 145 -63 70
-23 100 -28 240 -32 l160 -5 -45 -39 c-171 -151 -385 -234 -632 -245 -255 -12
-446 49 -579 182 -53 53 -68 87 -50 108 6 8 49 32 95 55 97 49 173 114 245
211 l51 69 153 -103 c83 -56 181 -118 217 -138z"/>
<path d="M4634 7412 c-25 -17 -132 -154 -196 -251 -123 -186 -208 -377 -242
-545 -21 -97 -20 -280 0 -387 29 -154 33 -140 64 193 36 398 69 496 259 767
89 127 135 205 129 221 -2 5 -8 6 -14 2z"/>
<path d="M2391 6184 c-2 -156 47 -309 131 -416 67 -85 64 -25 -6 140 -30 70
-66 168 -79 217 -48 174 -45 170 -46 59z"/>
<path d="M4440 5252 c0 -18 49 -52 129 -91 132 -64 173 -53 77 19 -77 58 -206
103 -206 72z"/>
<path d="M8624 6751 c-41 -25 -80 -73 -94 -117 -24 -71 6 -189 98 -385 78
-167 120 -324 129 -489 8 -136 -8 -217 -62 -326 -41 -83 -54 -124 -39 -124 35
0 82 66 112 160 82 259 65 441 -75 810 -96 251 -100 287 -52 400 17 40 27 76
22 81 -5 5 -22 0 -39 -10z"/>
<path d="M10875 5601 c-31 -35 -34 -189 -3 -179 15 5 46 94 47 134 1 16 -5 38
-12 48 -12 16 -14 16 -32 -3z"/>
<path d="M10767 5253 c-167 -202 -318 -421 -378 -548 -67 -143 -93 -234 -195
-670 -35 -154 -68 -282 -72 -286 -7 -6 -283 -34 -442 -45 -117 -8 -284 8 -431
42 -68 15 -134 24 -168 22 -49 -3 -56 -6 -59 -25 -7 -52 111 -70 527 -83 344
-11 551 -24 614 -41 63 -17 69 -45 65 -285 -2 -138 1 -206 8 -214 36 -36 54
87 54 361 l0 216 28 14 c22 11 115 14 492 17 505 2 538 5 630 59 128 75 189
172 226 356 28 143 54 226 100 321 18 39 31 72 29 75 -9 8 -75 -61 -101 -104
-34 -59 -53 -115 -80 -245 -13 -65 -37 -142 -54 -177 -56 -114 -182 -201 -323
-223 -41 -6 -233 -10 -485 -9 -474 1 -500 -2 -514 -59 -5 -20 -13 -30 -20 -26
-17 11 3 165 53 404 92 435 197 737 287 823 40 38 62 32 91 -26 29 -59 36 -51
45 51 8 94 34 166 95 267 85 140 76 155 -22 38z"/>
<path d="M12045 4020 c-56 -18 -183 -105 -172 -117 3 -2 56 12 119 33 188 62
275 53 369 -38 87 -85 109 -187 109 -513 0 -214 -12 -346 -36 -404 -17 -42
-92 -122 -146 -157 -55 -35 -119 -49 -162 -34 -41 13 -88 64 -119 126 -11 24
-24 44 -27 44 -4 0 -1 -36 6 -80 16 -101 6 -171 -38 -260 -42 -85 -108 -150
-203 -198 -77 -38 -78 -39 -46 -45 65 -13 140 29 283 161 105 97 167 144 277
207 114 67 172 121 204 192 44 97 52 180 52 508 0 284 -1 304 -23 372 -42 134
-150 210 -312 219 -57 3 -90 -1 -135 -16z"/>
<path d="M12271 3756 c-27 -29 -54 -115 -70 -221 -12 -85 -33 -387 -27 -393 2
-2 9 30 16 70 24 151 83 434 101 487 29 84 23 103 -20 57z"/>
<path d="M11419 3328 c-59 -144 -267 -365 -417 -443 -64 -33 -87 -30 -180 24
-84 48 -140 67 -154 53 -16 -16 5 -37 81 -82 91 -53 160 -129 214 -237 71
-141 97 -147 72 -17 -24 127 -15 145 169 334 204 209 246 269 246 355 0 53
-12 58 -31 13z"/>
<path d="M8530 3251 c0 -13 5 -53 11 -88 16 -90 4 -114 -71 -147 -32 -13 -66
-36 -76 -50 -21 -33 -29 -131 -19 -232 l8 -79 22 110 c27 133 37 160 67 178
39 24 169 45 523 82 262 27 399 47 526 75 95 20 116 29 167 67 72 54 24 55
-144 2 -198 -61 -509 -98 -724 -84 -170 10 -199 25 -259 135 -24 43 -31 50
-31 31z"/>
<path d="M4112 1689 c16 -147 163 -323 408 -488 173 -117 290 -204 438 -327
140 -117 162 -132 162 -112 0 37 -332 328 -555 485 -197 139 -308 251 -380
384 -21 38 -47 77 -58 86 -19 18 -20 17 -15 -28z"/>
<path d="M8370 7844 c-50 -10 -57 -14 -38 -25 19 -11 137 -33 258 -48 142 -19
713 -72 717 -67 10 9 -9 47 -28 57 -31 16 -216 46 -394 63 -170 16 -473 28
-515 20z"/>
</g>
</svg>
